<svg id="Layer_1" data-name="Layer 1" xmlns="http://www.w3.org/2000/svg" viewBox="0 0 532.7 310.69"><defs><style>.cls-1{fill:#6b6c6e;}.cls-2{fill:#3a7071;}.cls-3{fill:#498986;}.cls-4{fill:#59a0a3;}.cls-5{fill:#6dadb0;}.cls-6{fill:#539d98;}.cls-7{fill:#c8c9cb;}</style></defs><title>CERA Studios</title><path class="cls-1" d="M473.8,306.53c-3.53,1.77-10.6,3.53-19.65,3.53-21,0-36.75-13.24-36.75-37.63,0-23.29,15.78-39.07,38.85-39.07,9.27,0,15.12,2,17.66,3.31l-2.32,7.84a35,35,0,0,0-15-3.09c-17.44,0-29,11.15-29,30.68,0,18.21,10.48,29.91,28.58,29.91,5.85,0,11.81-1.21,15.67-3.09Z" transform="translate(-123.98 -128.47)"/><path class="cls-1" d="M524.35,274.08H495.43V300.9h32.23V309H485.83V234.57H526v8.06H495.43v23.51h28.92Z" transform="translate(-123.98 -128.47)"/><path class="cls-1" d="M540.13,235.56A100,100,0,0,1,558.56,234c10.26,0,16.89,1.88,21.52,6.07,3.75,3.31,5.85,8.39,5.85,14.13,0,9.82-6.18,16.33-14,19v.33c5.74,2,9.16,7.28,10.93,15,2.43,10.38,4.19,17.55,5.74,20.42h-9.93c-1.21-2.1-2.87-8.5-5-17.77-2.21-10.26-6.18-14.13-14.9-14.46h-9V309h-9.6Zm9.6,33.88h9.82c10.26,0,16.78-5.63,16.78-14.13,0-9.6-7-13.8-17.11-13.91a39.5,39.5,0,0,0-9.49.88Z" transform="translate(-123.98 -128.47)"/><path class="cls-1" d="M612.09,285.56,604.36,309h-9.93l25.27-74.39h11.59L656.68,309H646.41l-7.95-23.4Zm24.39-7.51-7.28-21.41c-1.66-4.86-2.76-9.27-3.86-13.58h-.22c-1.1,4.42-2.32,8.94-3.75,13.46l-7.28,21.52Z" transform="translate(-123.98 -128.47)"/><polygon class="cls-2" points="0 0 67.27 38.84 0 77.67 0 0"/><polygon class="cls-3" points="67.27 38.84 134.54 77.67 67.27 116.51 67.27 38.84"/><polygon class="cls-3" points="67.27 116.51 0 77.67 67.27 38.84 67.27 116.51"/><polygon class="cls-2" points="0 77.67 67.27 116.51 0 155.35 0 77.67"/><polygon class="cls-2" points="0 155.35 67.27 194.19 0 233.02 0 155.35"/><polygon class="cls-4" points="134.54 77.67 201.81 116.51 134.54 155.35 134.54 77.67"/><polygon class="cls-4" points="134.54 155.35 201.81 194.19 134.54 233.02 134.54 155.35"/><polygon class="cls-3" points="67.27 194.19 134.54 233.02 67.27 271.86 67.27 194.19"/><polygon class="cls-3" points="67.27 271.86 0 233.02 67.27 194.19 67.27 271.86"/><polygon class="cls-3" points="67.27 116.51 134.54 155.35 67.27 194.19 67.27 116.51"/><polygon class="cls-3" points="67.27 194.19 0 155.35 67.27 116.51 67.27 194.19"/><polygon class="cls-5" points="201.81 116.51 269.08 155.35 201.81 194.19 201.81 116.51"/><polygon class="cls-5" points="201.81 194.19 134.54 155.35 201.81 116.51 201.81 194.19"/><polygon class="cls-6" points="134.54 155.35 67.27 116.51 134.54 77.67 134.54 155.35"/><polygon class="cls-6" points="134.54 233.02 67.27 194.18 134.54 155.35 134.54 233.02"/><polygon class="cls-2" points="0 233.02 67.27 271.86 0 310.69 0 233.02"/><path class="cls-7" d="M427,364.78A15.31,15.31,0,0,0,434.7,367c4.42,0,7-2.34,7-5.71,0-3.13-1.79-4.92-6.31-6.66-5.46-1.94-8.84-4.77-8.84-9.49,0-5.22,4.32-9.09,10.83-9.09a15.21,15.21,0,0,1,7.4,1.64l-1.19,3.53a13.33,13.33,0,0,0-6.36-1.59c-4.57,0-6.31,2.73-6.31,5,0,3.13,2,4.67,6.66,6.46,5.66,2.19,8.54,4.92,8.54,9.83,0,5.16-3.82,9.64-11.72,9.64a17.31,17.31,0,0,1-8.54-2.14Z" transform="translate(-123.98 -128.47)"/><path class="cls-7" d="M458.39,340.25H448.21v-3.67H473v3.67H462.76V370h-4.37Z" transform="translate(-123.98 -128.47)"/><path class="cls-7" d="M481,336.57v19.82c0,7.5,3.33,10.68,7.8,10.68,5,0,8.15-3.28,8.15-10.68V336.57h4.37v19.52c0,10.28-5.41,14.5-12.67,14.5-6.85,0-12-3.92-12-14.3V336.57Z" transform="translate(-123.98 -128.47)"/><path class="cls-7" d="M508.85,337a61.87,61.87,0,0,1,9.19-.7c6.21,0,10.63,1.44,13.56,4.17s4.72,6.61,4.72,12-1.69,9.93-4.82,13-8.29,4.82-14.8,4.82a69.59,69.59,0,0,1-7.85-.4Zm4.32,29.6a27.33,27.33,0,0,0,4.37.25c9.24,0,14.25-5.17,14.25-14.21,0-7.9-4.42-12.91-13.56-12.91a24.5,24.5,0,0,0-5.07.45Z" transform="translate(-123.98 -128.47)"/><path class="cls-7" d="M546.25,336.57V370h-4.32V336.57Z" transform="translate(-123.98 -128.47)"/><path class="cls-7" d="M582.41,353c0,11.52-7,17.63-15.55,17.63-8.84,0-15-6.85-15-17,0-10.63,6.61-17.58,15.55-17.58C576.5,336,582.41,343,582.41,353Zm-26,.55c0,7.15,3.87,13.56,10.68,13.56s10.73-6.31,10.73-13.91c0-6.66-3.48-13.61-10.68-13.61S556.43,346.16,556.43,353.51Z" transform="translate(-123.98 -128.47)"/><path class="cls-7" d="M587.42,364.78a15.31,15.31,0,0,0,7.75,2.19c4.42,0,7-2.34,7-5.71,0-3.13-1.79-4.92-6.31-6.66-5.46-1.94-8.84-4.77-8.84-9.49,0-5.22,4.32-9.09,10.83-9.09a15.21,15.21,0,0,1,7.4,1.64l-1.19,3.53a13.33,13.33,0,0,0-6.36-1.59c-4.57,0-6.31,2.73-6.31,5,0,3.13,2,4.67,6.66,6.46,5.66,2.19,8.54,4.92,8.54,9.83,0,5.16-3.82,9.64-11.72,9.64a17.31,17.31,0,0,1-8.54-2.14Z" transform="translate(-123.98 -128.47)"/></svg>